<?xml version="1.0" encoding="UTF-8" standalone="no"?><!DOCTYPE svg PUBLIC "-//W3C//DTD SVG 1.1//EN" "http://www.w3.org/Graphics/SVG/1.1/DTD/svg11.dtd"><svg width="100%" height="100%" viewBox="0 0 4267 4267" version="1.1" xmlns="http://www.w3.org/2000/svg" xmlns:xlink="http://www.w3.org/1999/xlink" xml:space="preserve" style="fill-rule:evenodd;clip-rule:evenodd;stroke-linejoin:round;stroke-miterlimit:2;"><g><circle cx="2133.32" cy="2133.32" r="2087.61" style="fill:#78b9b5;"/></g><g><path d="M1198.4,2798.55l0,-1064.65c0,-48.525 9.975,-92.997 29.924,-133.418c19.952,-40.441 46.299,-72.615 79.047,-96.521c32.762,-23.909 68.802,-35.862 108.121,-35.862l1652.76,0l-0,267.677l-783.211,0l0,263.58l629.4,-0l-0,267.936l-629.4,0l0,263.577l783.211,0l-0,267.678l-1000.54,-0l0,-437.217l-649.41,-0l-0,437.217l-219.899,-0Zm219.899,-704.895l649.41,0l0,-347.163c0,-2.946 -0.863,-5.467 -2.594,-7.565c-1.713,-2.098 -3.765,-3.148 -6.153,-3.148l-631.916,0c-2.388,0 -4.448,1.05 -6.178,3.148c-1.714,2.098 -2.569,4.619 -2.569,7.565l-0,347.163Z" style="fill:#1b3c53;fill-rule:nonzero;"/></g><g><path d="M865.016,3316.48c-72.303,-0 -138.581,-18.076 -198.833,-54.228c-60.253,-36.151 -108.455,-84.353 -144.606,-144.606c-36.152,-60.252 -54.228,-126.53 -54.228,-198.833l0,-535.7l-154.465,-95.309l-0,-315.504l154.465,-82.162l0,-538.987c0,-74.494 18.076,-141.867 54.228,-202.12c36.151,-60.252 84.353,-108.454 144.606,-144.606c60.252,-36.151 126.53,-54.227 198.833,-54.227l95.309,-0l-0,272.78l-95.309,-0c-35.056,-0 -65.182,12.598 -90.379,37.794c-25.196,25.197 -37.794,55.323 -37.794,90.379l-0,561.992l-276.067,220.196l276.067,226.768l-0,558.706c-0,35.056 12.598,65.182 37.794,90.379c25.197,25.196 55.323,37.795 90.379,37.795l95.309,-0l-0,269.493l-95.309,-0Z" style="fill:#1b3c53;fill-rule:nonzero;"/></g><g><path d="M3306.35,3316.48l-0,-269.493l95.308,-0c35.056,-0 65.183,-12.599 90.379,-37.795c25.197,-25.197 37.795,-55.323 37.795,-90.379l-0,-555.419l276.066,-226.769l-276.066,-216.909l-0,-568.565c-0,-35.056 -12.598,-65.182 -37.795,-90.379c-25.196,-25.196 -55.323,-37.794 -90.379,-37.794l-95.308,-0l-0,-272.78l95.308,-0c72.303,-0 138.581,18.076 198.834,54.227c60.252,36.152 108.454,84.354 144.606,144.606c36.151,60.253 54.227,127.626 54.227,202.12l0,538.987l151.179,88.735l0,312.218l-151.179,95.308l0,532.414c0,72.303 -18.076,138.581 -54.227,198.833c-36.152,60.253 -84.354,108.455 -144.606,144.606c-60.253,36.152 -126.531,54.228 -198.834,54.228l-95.308,-0Z" style="fill:#1b3c53;fill-rule:nonzero;"/></g></svg>