<?xml version="1.0" encoding="UTF-8" standalone="no"?><!DOCTYPE svg PUBLIC "-//W3C//DTD SVG 1.1//EN" "http://www.w3.org/Graphics/SVG/1.1/DTD/svg11.dtd"><svg width="100%" height="100%" viewBox="0 0 1512 2134" version="1.1" xmlns="http://www.w3.org/2000/svg" xmlns:xlink="http://www.w3.org/1999/xlink" xml:space="preserve" xmlns:serif="http://www.serif.com/" style="fill-rule:evenodd;clip-rule:evenodd;stroke-linejoin:round;stroke-miterlimit:2;"><rect id="Artboard1" x="0" y="0" width="1511.67" height="2133.33" style="fill:none;"/><clipPath id="_clip1"><rect x="0" y="0" width="1511.67" height="2133.33"/></clipPath><g clip-path="url(#_clip1)"><path d="M143.333,0l95.834,0l-0,95l88.333,0l0,-95l95.833,0l0,287.5l-95.833,0l0,-95.833l-87.5,-0l0,95.833l-96.667,0m406.667,-191.667l-84.583,0l-0,-95.833l265.416,0l0,95.833l-85,0l0,191.667l-95.833,0m222.917,-287.5l100.416,0l61.667,101.25l61.667,-101.25l100.416,0l0,287.5l-95.833,0l0,-142.5l-67.083,103.333l-67.084,-103.333l0,142.5l-94.166,0m371.666,-287.5l95.834,0l-0,192.5l135.833,0l-0,95l-231.667,0" style="fill-rule:nonzero;"/><path d="M140,1962.5l-137.5,-1543.33l1511.67,-0l-137.5,1542.5l-619.584,171.666" style="fill:#e44d26;fill-rule:nonzero;"/><path d="M758.333,2002.08l0,-1456.25l617.917,0l-117.917,1316.67" style="fill:#f16529;fill-rule:nonzero;"/><path d="M283.333,734.583l475,0l0,189.167l-267.5,0l17.5,193.75l250,0l0,188.75l-423.333,0m8.333,95l190,0l13.334,151.25l211.666,56.667l0,197.5l-388.333,-108.334" style="fill:#ebebeb;fill-rule:nonzero;"/><path d="M1231.67,734.583l-474.167,0l0,189.167l456.667,0m-17.084,193.75l-439.583,0l0,189.167l233.333,-0l-22.083,245.833l-211.25,56.667l0,196.666l387.5,-107.5" style="fill:#fff;fill-rule:nonzero;"/></g></svg>