<?xml version="1.0" encoding="UTF-8" standalone="no"?><!DOCTYPE svg PUBLIC "-//W3C//DTD SVG 1.1//EN" "http://www.w3.org/Graphics/SVG/1.1/DTD/svg11.dtd"><svg width="100%" height="100%" viewBox="0 0 6900 9717" version="1.1" xmlns="http://www.w3.org/2000/svg" xmlns:xlink="http://www.w3.org/1999/xlink" xml:space="preserve" style="fill-rule:evenodd;clip-rule:evenodd;stroke-linejoin:round;stroke-miterlimit:2;"><path id="path118" d="M384.763,2134.1l0.973,79.079c0.533,43.496 124.283,1483.56 275,3200.13l274.028,3121.05l1231.63,351.136c677.397,193.122 1245.62,352.107 1262.7,353.326c17.085,1.222 592.803,-156.166 1279.38,-349.743c1100.78,-310.364 1249.38,-357.11 1257.27,-395.528c10.982,-53.522 550.038,-6245.74 549.486,-6312.02l-0.395,-47.449l-6130.07,0l-0.008,0.016Z" style="fill:#fff;fill-rule:nonzero;"/><path id="path88" d="M1684.32,9104.7l-756.36,-167.906l-124.756,-180.907c-16.133,-91.316 -284.393,-6532.93 -284.393,-6621.8c-0,-32.17 -166.227,-72.439 2931.18,-72.439c3269.5,0 3125.1,-138.576 3248.89,72.439c92.58,157.816 -588.973,6488.03 -661.15,6608.22c-13.312,22.167 -2497.91,787.388 -2587.74,800.663c-25.467,3.763 -610.901,-90.611 -1374.79,-304.136l-390.888,-134.129Zm2640.52,-1144.32c466.821,-128.75 855.5,-240.729 863.733,-248.846c8.233,-8.112 62.863,-561.625 121.392,-1230.03c58.533,-668.404 112.333,-1259.55 119.55,-1313.66l13.129,-98.379l-2016.73,-0l-0,856.479l1088.85,-0l-10.829,52.083c-5.959,28.646 -29.113,274.817 -51.454,547.046c-23.671,288.45 -51.742,506.075 -67.271,521.608c-14.659,14.659 -236.496,82.58 -492.971,150.942l-466.321,124.292l-0,436.275c-0,297.775 7.962,436.275 25.075,436.275c13.792,-0 407.021,-105.342 873.846,-234.092Zm1104.53,-3429.1c-15.3,-113.425 -143.074,-1644.72 -151.6,-1701.45c-6.986,-46.486 -80.133,-28.876 -914.354,-28.876l-914.35,-0l-0,895.617l410.879,15.837c225.983,8.708 463.808,21.963 528.504,29.454l117.621,13.625l28.554,350.279c15.709,192.655 34.421,389.342 41.588,437.088l13.029,86.804l853.4,0l-13.271,-98.379Z" style="fill:#eaebec;fill-rule:nonzero;"/><path id="path80" d="M2014.56,9309.04l-1376.64,-385.434l-306.296,-3425.93c-168.463,-1884.26 -306.784,-3464.99 -307.384,-3512.73l-1.083,-86.804l6851.83,-0l0.446,52.083c0.617,72.721 -601.925,6869.88 -614.2,6928.62c-8.808,42.171 -174.904,93.488 -1405.29,434.167c-767.417,212.492 -1410.93,385.25 -1430.03,383.908c-19.095,-1.337 -654.212,-175.879 -1411.37,-387.871l0.016,-0.016Zm2311.33,-1332.33c475.883,-132.304 871.995,-251.479 880.249,-264.838c8.255,-13.354 65.105,-595.137 126.334,-1292.85c61.229,-697.712 116.342,-1286.8 122.471,-1309.08c10.525,-38.275 -70.446,-40.508 -1467.26,-40.508l-1478.39,-0l62.945,-665.513c34.621,-366.029 63.78,-666.454 64.8,-667.612c1.017,-1.159 217.996,-8.079 482.175,-15.38c433.18,-11.974 1326.47,22.584 1356.36,52.467c11.162,11.167 84.612,731.779 84.612,830.146c0,48.504 6.546,49.225 448.546,49.225l448.546,-0l-10.571,-98.379c-5.812,-54.113 -43.808,-473.384 -84.433,-931.717l-73.863,-833.333l-1729.85,-5.934c-1376.19,-4.72 -1729.89,0.013 -1730.04,23.15c-0.12,15.996 -10.191,117.625 -22.412,225.842c-29.579,261.867 -255.175,2792.06 -255.175,2861.94l-0,54.729l2943.88,-0l-13.121,86.804c-7.216,47.742 -30.095,289.929 -50.845,538.196c-20.75,248.262 -44.404,457.8 -52.571,465.641c-21.567,20.7 -887.488,252.03 -941.484,251.513c-25.07,-0.238 -248.708,-56.038 -496.97,-123.996l-451.392,-123.558l-16.55,-194.292c-9.104,-106.858 -22.954,-259.396 -30.779,-338.967l-14.225,-144.675l-875.946,0l0.971,86.805c1.812,162.337 107.079,1255.81 122.366,1271.1c17.68,17.679 1699.87,490.537 1751.66,492.391c19.1,0.679 424.083,-107.012 899.967,-239.316l-0.005,-0Z" style="fill:#f0be25;fill-rule:nonzero;"/><path id="path78" d="M2014.56,9309.04l-1376.64,-385.434l-306.296,-3425.93c-168.463,-1884.26 -306.784,-3464.99 -307.384,-3512.73l-1.083,-86.804l6851.83,-0l0.446,52.083c0.617,72.721 -601.925,6869.88 -614.2,6928.62c-8.808,42.171 -174.904,93.488 -1405.29,434.167c-767.417,212.492 -1410.93,385.25 -1430.03,383.908c-19.095,-1.337 -654.212,-175.879 -1411.37,-387.871l0.016,-0.016Zm2567.26,-515.638c605.579,-167.1 1112.42,-315.537 1126.33,-329.862c21.633,-22.292 544.654,-5754.42 542.55,-5946.17l-0.7,-63.658l-2800.93,-0l0,324.075l-810.187,-0c-632.613,-0 -810.225,6.341 -810.375,28.933c-0.121,15.917 -10.192,117.479 -22.413,225.696c-29.579,261.867 -255.175,2792.06 -255.175,2861.94l0,54.73l1898.15,-0l0,671.295c0,521.838 -6.442,671.2 -28.937,670.859c-15.913,-0.242 -232.059,-56.038 -480.321,-123.996l-451.392,-123.558l-16.55,-194.292c-9.104,-106.858 -22.954,-259.396 -30.779,-338.967l-14.225,-144.675l-875.946,0l0.971,86.804c2.775,248.292 110.183,1261.79 135.375,1277.36c15.308,9.462 417.979,125.162 894.821,257.117l866.983,239.908l0,435.146c0,239.329 7.133,435.141 15.85,435.141c8.717,0 511.321,-136.716 1116.9,-303.812l-0,-0.017Zm-2012.02,-4383.25c33.279,-362.608 65.042,-663.391 70.583,-668.408c5.546,-5.013 189.767,-14.088 409.384,-20.167l399.308,-11.046l0,1358.91l-939.783,-0l60.508,-659.292Z" style="fill:#e4a126;fill-rule:nonzero;"/><path id="path76" d="M2199.08,1296.3l0,-439.813l625,0l0,-856.483l439.813,-0l-0,1296.3l-1064.81,-0Zm1273.15,-0l-0,-347.221l289.354,0c159.142,0 289.35,-5.883 289.35,-13.075c0,-7.188 -130.208,-154.192 -289.35,-326.671l-289.354,-313.596l-0,-295.733l1203.7,-0l0,345.796l-282.542,6.5l-282.545,6.5l294.12,316.741l294.117,316.742l0,304.017l-1226.85,-0Z" style="fill:#fff;fill-rule:nonzero;"/></svg>