<?xml version="1.0" encoding="UTF-8" standalone="no"?><!DOCTYPE svg PUBLIC "-//W3C//DTD SVG 1.1//EN" "http://www.w3.org/Graphics/SVG/1.1/DTD/svg11.dtd"><svg width="100%" height="100%" viewBox="0 0 28750 40488" version="1.1" xmlns="http://www.w3.org/2000/svg" xmlns:xlink="http://www.w3.org/1999/xlink" xml:space="preserve" xmlns:serif="http://www.serif.com/" style="fill-rule:evenodd;clip-rule:evenodd;stroke-linejoin:round;stroke-miterlimit:2;"><path id="path118" d="M1603.18,8892.08l4.054,329.496c2.221,181.234 517.846,6181.5 1145.83,13333.9l1141.78,13004.4l5131.79,1463.07c2822.49,804.675 5190.08,1467.11 5261.25,1472.19c71.187,5.091 2470.01,-650.692 5330.75,-1457.26c4586.58,-1293.18 5205.75,-1487.96 5238.62,-1648.03c45.758,-223.009 2291.83,-26023.9 2289.53,-26300.1l-1.646,-197.704l-25542,0l-0.033,0.067l0.025,0.012Z" style="fill:#fff;fill-rule:nonzero;"/><path id="path88" d="M7018,37936.2l-3151.5,-699.608l-519.817,-753.779c-67.22,-380.484 -1184.97,-27220.5 -1184.97,-27590.8c0,-134.041 -692.612,-301.829 12213.3,-301.829c13622.9,0 13021.2,-577.4 13537,301.829c385.75,657.567 -2454.05,27033.5 -2754.79,27534.2c-55.467,92.363 -10408,3280.78 -10782.2,3336.1c-106.113,15.679 -2545.42,-377.546 -5728.29,-1267.23l-1628.7,-558.871l0.029,-0.021Zm11002.2,-4768c1945.09,-536.458 3564.58,-1003.04 3598.89,-1036.86c34.304,-33.8 261.929,-2340.1 505.8,-5125.12c243.888,-2785.02 468.054,-5248.12 498.125,-5473.58l54.704,-409.912l-8403.04,-0l-0,3568.66l4536.88,0l-45.121,217.013c-24.829,119.358 -121.304,1145.07 -214.392,2279.36c-98.629,1201.88 -215.591,2108.65 -280.296,2173.37c-61.079,61.079 -985.4,344.083 -2054.05,628.925l-1943.01,517.883l0,1817.81c0,1240.73 33.175,1817.81 104.48,1817.81c57.466,0 1695.92,-438.925 3641.03,-975.383l0.004,0.029Zm4602.21,-14287.9c-63.75,-472.604 -596.142,-6853 -631.667,-7089.38c-29.108,-193.691 -333.887,-120.316 -3809.81,-120.316l-3809.79,-0l0,3731.74l1712,65.988c941.596,36.283 1932.53,91.512 2202.1,122.725l490.088,56.771l118.975,1459.5c65.454,802.73 143.421,1622.26 173.283,1821.2l54.288,361.684l3555.83,-0l-55.296,-409.913l0,0.004Z" style="fill:#eaebec;fill-rule:nonzero;"/><path id="path80" d="M8394,38787.7l-5736,-1605.98l-1276.23,-14274.7c-701.93,-7851.08 -1278.27,-14437.5 -1280.77,-14636.4l-4.513,-361.683l28549.3,0l1.858,217.013c2.571,303.004 -2508.02,28624.5 -2559.17,28869.2c-36.7,175.712 -728.767,389.533 -5855.38,1809.03c-3197.57,885.383 -5878.88,1605.21 -5958.46,1599.62c-79.563,-5.571 -2725.88,-732.829 -5880.71,-1616.13l0.067,-0.066l0.004,0.029Zm9630.54,-5551.38c1982.85,-551.267 3633.31,-1047.83 3667.7,-1103.49c34.396,-55.642 271.271,-2479.74 526.391,-5386.88c255.121,-2907.13 484.759,-5361.67 510.296,-5454.5c43.854,-159.479 -293.525,-168.783 -6113.58,-168.783l-6159.96,-0l262.27,-2772.97c144.255,-1525.12 265.751,-2776.89 270.001,-2781.72c4.237,-4.829 908.316,-33.662 2009.06,-64.083c1804.92,-49.892 5526.96,94.1 5651.5,218.612c46.508,46.529 352.55,3049.08 352.55,3458.94c0,202.1 27.275,205.104 1868.94,205.104l1868.94,0l-44.045,-409.912c-24.217,-225.471 -182.534,-1972.43 -351.805,-3882.15l-307.762,-3472.22l-7207.71,-24.725c-5734.12,-19.667 -7207.88,0.054 -7208.5,96.458c-0.5,66.65 -42.463,490.104 -93.384,941.008c-123.246,1091.11 -1063.23,11633.6 -1063.23,11924.8l0,228.038l12266.2,-0l-54.671,361.683c-30.067,198.925 -125.396,1208.04 -211.854,2242.48c-86.459,1034.42 -185.017,1907.5 -219.046,1940.17c-89.863,86.25 -3697.87,1050.12 -3922.85,1047.97c-104.458,-0.992 -1036.28,-233.492 -2070.71,-516.65l-1880.8,-514.825l-68.959,-809.55c-37.933,-445.242 -95.641,-1080.82 -128.246,-1412.36l-59.27,-602.813l-3649.78,0l4.045,361.688c7.55,676.404 446.163,5232.54 509.859,5296.25c73.666,73.662 7082.79,2043.9 7298.58,2051.63c79.583,2.829 1767.01,-445.883 3749.86,-997.15l-0.021,-0l-0,-0.004Z" style="fill:#f0be25;fill-rule:nonzero;"/><path id="path78" d="M8394,38787.7l-5736,-1605.98l-1276.23,-14274.7c-701.93,-7851.08 -1278.27,-14437.5 -1280.77,-14636.4l-4.513,-361.683l28549.3,0l1.858,217.013c2.571,303.004 -2508.02,28624.5 -2559.17,28869.2c-36.7,175.712 -728.767,389.533 -5855.38,1809.03c-3197.57,885.383 -5878.88,1605.21 -5958.46,1599.62c-79.563,-5.571 -2725.88,-732.829 -5880.71,-1616.13l0.067,-0.066l0.004,0.029Zm10696.9,-2148.49c2523.24,-696.25 4635.08,-1314.74 4693.04,-1374.42c90.138,-92.883 2269.39,-23976.8 2260.62,-24775.7l-2.916,-265.242l-11670.5,-0l0,1350.31l-3375.78,0c-2635.89,0 -3375.94,26.421 -3376.56,120.555c-0.504,66.32 -42.466,489.495 -93.387,940.4c-123.246,1091.11 -1063.23,11633.6 -1063.23,11924.8l-0,228.041l7908.96,0l0,2797.06c0,2174.32 -26.842,2796.67 -120.571,2795.25c-66.304,-1.009 -966.912,-233.492 -2001.34,-516.65l-1880.8,-514.825l-68.959,-809.55c-37.933,-445.242 -95.641,-1080.82 -128.245,-1412.36l-59.271,-602.812l-3649.78,-0l4.046,361.683c11.562,1034.55 459.095,5257.46 564.062,5322.33c63.783,39.425 1741.58,521.509 3728.42,1071.32l3612.43,999.617l0,1813.11c0,997.204 29.721,1813.09 66.042,1813.09c36.321,-0 2130.5,-569.65 4653.75,-1265.88l-0,-0.071l-0,0.013Zm-8383.42,-18263.5c138.662,-1510.87 271.008,-2764.13 294.096,-2785.03c23.108,-20.888 790.696,-58.7 1705.77,-84.029l1663.78,-46.025l-0,5662.12l-3915.76,-0l252.117,-2747.05l-0,0.012Z" style="fill:#e4a126;fill-rule:nonzero;"/><path id="path76" d="M9162.83,5401.25l0,-1832.55l2604.17,-0l0,-3568.68l1832.55,-0l0,5401.25l-4436.71,-0l-0.013,-0.017Zm5304.79,0l0,-1446.75l1205.64,-0c663.091,-0 1205.62,-24.513 1205.62,-54.479c-0,-29.95 -542.534,-642.467 -1205.62,-1361.13l-1205.64,-1306.65l0,-1232.22l5015.42,-0l-0,1440.82l-1177.26,27.084l-1177.27,27.083l1225.5,1319.75l1225.49,1319.76l-0,1266.74l-5111.88,-0Z" style="fill-rule:nonzero;"/></svg>